<svg width="57" height="56" viewBox="0 0 57 56" fill="none" xmlns="http://www.w3.org/2000/svg">
<circle cx="28.1729" cy="28" r="27.5" fill="#121212" stroke="url(#paint0_linear_608_841)"/>
<path d="M23.1729 31H25.1729C25.1729 32.08 26.5429 33 28.1729 33C29.8029 33 31.1729 32.08 31.1729 31C31.1729 29.9 30.1329 29.5 27.9329 28.97C25.8129 28.44 23.1729 27.78 23.1729 25C23.1729 23.21 24.6429 21.69 26.6729 21.18V19H29.6729V21.18C31.7029 21.69 33.1729 23.21 33.1729 25H31.1729C31.1729 23.92 29.8029 23 28.1729 23C26.5429 23 25.1729 23.92 25.1729 25C25.1729 26.1 26.2129 26.5 28.4129 27.03C30.5329 27.56 33.1729 28.22 33.1729 31C33.1729 32.79 31.7029 34.31 29.6729 34.82V37H26.6729V34.82C24.6429 34.31 23.1729 32.79 23.1729 31Z" fill="#0B7999"/>
<defs>
<linearGradient id="paint0_linear_608_841" x1="6.09356" y1="8.05575e-07" x2="56.3184" y2="6.24843" gradientUnits="userSpaceOnUse">
<stop stop-color="#0B7999"/>
<stop offset="1" stop-color="#1AD061"/>
</linearGradient>
</defs>
</svg>
