<svg width="1440" height="904" viewBox="0 0 1440 904" fill="none" xmlns="http://www.w3.org/2000/svg">
<g filter="url(#filter0_f_0_1)">
<path d="M564.018 760.432C616.252 744.561 674.356 740.593 728.006 760.432C775.864 778.129 798.865 848.101 810 884H480C489.448 849.424 511.785 776.303 564.018 760.432Z" fill="url(#paint0_linear_0_1)" fill-opacity="0.8"/>
</g>
<g style="mix-blend-mode:screen" filter="url(#filter1_f_0_1)">
<ellipse cx="645.5" cy="768" rx="129.5" ry="9" fill="#4DD7A0" fill-opacity="0.5"/>
</g>
<g style="mix-blend-mode:screen" filter="url(#filter2_f_0_1)">
<ellipse cx="946.5" cy="764.5" rx="75.5" ry="5.5" fill="#4DD7A0" fill-opacity="0.5"/>
</g>
<g style="mix-blend-mode:screen" filter="url(#filter3_f_0_1)">
<ellipse cx="234.5" cy="771.5" rx="129.5" ry="5.5" fill="#4DD7A0" fill-opacity="0.5"/>
</g>
<g filter="url(#filter4_f_0_1)">
<path d="M1442.5 794.5H-2" stroke="#70ED8D" stroke-opacity="0.3" stroke-width="2"/>
</g>
<g filter="url(#filter5_f_0_1)">
<path d="M1442.5 853H-2" stroke="#70ED8D" stroke-opacity="0.3" stroke-width="2"/>
</g>
<path d="M1447.5 871L1325.5 690.5" stroke="url(#paint1_linear_0_1)" stroke-opacity="0.3" stroke-width="2"/>
<path d="M1338.5 864.5L1236 690.5" stroke="url(#paint2_linear_0_1)" stroke-opacity="0.3" stroke-width="2"/>
<path d="M1244 866L1147 690.5" stroke="url(#paint3_linear_0_1)" stroke-opacity="0.3" stroke-width="2"/>
<path d="M1138.5 864L1061 690.5" stroke="url(#paint4_linear_0_1)" stroke-opacity="0.3" stroke-width="2"/>
<path d="M1033.5 864L975.5 691" stroke="url(#paint5_linear_0_1)" stroke-opacity="0.3" stroke-width="2"/>
<path d="M926 864L889.5 691" stroke="url(#paint6_linear_0_1)" stroke-opacity="0.3" stroke-width="2"/>
<path d="M-17 871L105 690.5" stroke="url(#paint7_linear_0_1)" stroke-opacity="0.3" stroke-width="2"/>
<path d="M92 864.5L194.5 690.5" stroke="url(#paint8_linear_0_1)" stroke-opacity="0.3" stroke-width="2"/>
<path d="M186.5 866L283.5 690.5" stroke="url(#paint9_linear_0_1)" stroke-opacity="0.3" stroke-width="2"/>
<path d="M292 864L369.5 690.5" stroke="url(#paint10_linear_0_1)" stroke-opacity="0.3" stroke-width="2"/>
<path d="M397 864L455 691" stroke="url(#paint11_linear_0_1)" stroke-opacity="0.3" stroke-width="2"/>
<path d="M504.5 864L541 691" stroke="url(#paint12_linear_0_1)" stroke-opacity="0.3" stroke-width="2"/>
<path d="M608 863L628 689.5" stroke="url(#paint13_linear_0_1)" stroke-opacity="0.3" stroke-width="2"/>
<path d="M715 863L718.5 690.5" stroke="url(#paint14_linear_0_1)" stroke-opacity="0.3" stroke-width="2"/>
<path d="M821 863L802 690.5" stroke="url(#paint15_linear_0_1)" stroke-opacity="0.3" stroke-width="2"/>
<g filter="url(#filter6_f_0_1)">
<path d="M1442.5 749H-2" stroke="#70ED8D" stroke-opacity="0.25" stroke-width="2"/>
</g>
<g filter="url(#filter7_f_0_1)">
<path d="M1442.5 719H-2" stroke="#70ED8D" stroke-opacity="0.2" stroke-width="2"/>
</g>
<g filter="url(#filter8_f_0_1)">
<path d="M1442.5 691H-2" stroke="#70ED8D" stroke-opacity="0.08" stroke-width="2"/>
</g>
<g filter="url(#filter9_f_0_1)">
<path d="M-5 626.207C24.3275 661.724 106.193 739.261 232.499 739.261C275.188 739.261 332.356 739.261 420.879 668.727C457.92 639.213 484.25 628.372 538.549 688.237C569.855 722.753 597.383 760.771 655.679 754.268C707.497 748.487 731.699 706.017 750.138 639.213C762.013 596.193 794.061 538.166 855.933 575.183C896.956 599.726 937.007 625.007 984.938 596.193C1041.07 562.447 1139.2 443.121 1169 187" stroke="#70ED8D" stroke-opacity="0.5" stroke-width="15"/>
</g>
<path d="M420.879 668.727L417.763 664.817L420.879 668.727ZM538.549 688.237L534.845 691.596L538.549 688.237ZM655.679 754.268L655.124 749.298L655.679 754.268ZM750.138 639.213L745.319 637.883L750.138 639.213ZM855.933 575.183L858.5 570.892L855.933 575.183ZM984.938 596.193L982.362 591.908L984.938 596.193ZM1172.82 167.274C1171.04 165.164 1167.88 164.898 1165.77 166.68L1131.39 195.71C1129.28 197.491 1129.01 200.646 1130.8 202.756C1132.58 204.866 1135.73 205.132 1137.84 203.35L1168.41 177.546L1194.21 208.11C1195.99 210.219 1199.15 210.486 1201.26 208.704C1203.37 206.923 1203.63 203.768 1201.85 201.658L1172.82 167.274ZM-8.85547 629.391C20.9163 665.446 104.056 744.261 232.499 744.261V734.261C108.329 734.261 27.7387 658.002 -1.14453 623.024L-8.85547 629.391ZM232.499 744.261C253.881 744.261 279.459 744.276 310.882 735.25C342.31 726.222 379.31 708.241 423.994 672.638L417.763 664.817C373.925 699.747 338.08 717.033 308.121 725.638C278.157 734.245 253.806 734.261 232.499 734.261V744.261ZM423.994 672.638C442.581 657.829 457.05 648.999 472.942 649.956C488.86 650.914 507.852 661.836 534.845 691.596L542.252 684.877C514.947 654.772 493.625 641.183 473.543 639.974C453.434 638.764 436.218 650.112 417.763 664.817L423.994 672.638ZM534.845 691.596C565.591 725.494 594.912 766.077 656.233 759.237L655.124 749.298C599.855 755.464 574.119 720.011 542.252 684.877L534.845 691.596ZM656.233 759.237C683.631 756.18 703.835 743.32 719.419 722.632C734.833 702.17 745.694 674.108 754.958 640.544L745.319 637.883C736.144 671.122 725.683 697.697 711.432 716.616C697.35 735.309 679.544 746.574 655.124 749.298L656.233 759.237ZM754.958 640.544C760.807 619.354 771.458 595.222 787.602 580.927C795.569 573.873 804.752 569.315 815.351 568.507C825.972 567.697 838.555 570.612 853.366 579.474L858.5 570.892C842.376 561.245 827.75 557.532 814.59 558.536C801.407 559.541 790.235 565.238 780.972 573.441C762.655 589.66 751.345 616.052 745.319 637.883L754.958 640.544ZM853.366 579.474C873.684 591.629 894.592 604.514 916.525 610.519C938.824 616.625 962.251 615.665 987.514 600.478L982.362 591.908C959.694 605.534 939.13 606.341 919.165 600.874C898.834 595.307 879.206 583.28 858.5 570.892L853.366 579.474ZM987.514 600.478C1045.46 565.643 1151.4 438.435 1173.98 170.921L1164.02 170.079C1141.6 435.565 1036.69 559.251 982.362 591.908L987.514 600.478Z" fill="#70ED8D"/>
<g filter="url(#filter10_f_0_1)">
<ellipse cx="1167.5" cy="185" rx="91.5" ry="85" fill="#71F091" fill-opacity="0.5"/>
</g>
<defs>
<filter id="filter0_f_0_1" x="460" y="727" width="370" height="177" filterUnits="userSpaceOnUse" color-interpolation-filters="sRGB">
<feFlood flood-opacity="0" result="BackgroundImageFix"/>
<feBlend mode="normal" in="SourceGraphic" in2="BackgroundImageFix" result="shape"/>
<feGaussianBlur stdDeviation="10" result="effect1_foregroundBlur_0_1"/>
</filter>
<filter id="filter1_f_0_1" x="496" y="739" width="299" height="58" filterUnits="userSpaceOnUse" color-interpolation-filters="sRGB">
<feFlood flood-opacity="0" result="BackgroundImageFix"/>
<feBlend mode="normal" in="SourceGraphic" in2="BackgroundImageFix" result="shape"/>
<feGaussianBlur stdDeviation="10" result="effect1_foregroundBlur_0_1"/>
</filter>
<filter id="filter2_f_0_1" x="851" y="739" width="191" height="51" filterUnits="userSpaceOnUse" color-interpolation-filters="sRGB">
<feFlood flood-opacity="0" result="BackgroundImageFix"/>
<feBlend mode="normal" in="SourceGraphic" in2="BackgroundImageFix" result="shape"/>
<feGaussianBlur stdDeviation="10" result="effect1_foregroundBlur_0_1"/>
</filter>
<filter id="filter3_f_0_1" x="85" y="746" width="299" height="51" filterUnits="userSpaceOnUse" color-interpolation-filters="sRGB">
<feFlood flood-opacity="0" result="BackgroundImageFix"/>
<feBlend mode="normal" in="SourceGraphic" in2="BackgroundImageFix" result="shape"/>
<feGaussianBlur stdDeviation="10" result="effect1_foregroundBlur_0_1"/>
</filter>
<filter id="filter4_f_0_1" x="-6" y="789.5" width="1452.5" height="10" filterUnits="userSpaceOnUse" color-interpolation-filters="sRGB">
<feFlood flood-opacity="0" result="BackgroundImageFix"/>
<feBlend mode="normal" in="SourceGraphic" in2="BackgroundImageFix" result="shape"/>
<feGaussianBlur stdDeviation="2" result="effect1_foregroundBlur_0_1"/>
</filter>
<filter id="filter5_f_0_1" x="-6" y="848" width="1452.5" height="10" filterUnits="userSpaceOnUse" color-interpolation-filters="sRGB">
<feFlood flood-opacity="0" result="BackgroundImageFix"/>
<feBlend mode="normal" in="SourceGraphic" in2="BackgroundImageFix" result="shape"/>
<feGaussianBlur stdDeviation="2" result="effect1_foregroundBlur_0_1"/>
</filter>
<filter id="filter6_f_0_1" x="-6" y="744" width="1452.5" height="10" filterUnits="userSpaceOnUse" color-interpolation-filters="sRGB">
<feFlood flood-opacity="0" result="BackgroundImageFix"/>
<feBlend mode="normal" in="SourceGraphic" in2="BackgroundImageFix" result="shape"/>
<feGaussianBlur stdDeviation="2" result="effect1_foregroundBlur_0_1"/>
</filter>
<filter id="filter7_f_0_1" x="-6" y="714" width="1452.5" height="10" filterUnits="userSpaceOnUse" color-interpolation-filters="sRGB">
<feFlood flood-opacity="0" result="BackgroundImageFix"/>
<feBlend mode="normal" in="SourceGraphic" in2="BackgroundImageFix" result="shape"/>
<feGaussianBlur stdDeviation="2" result="effect1_foregroundBlur_0_1"/>
</filter>
<filter id="filter8_f_0_1" x="-6" y="686" width="1452.5" height="10" filterUnits="userSpaceOnUse" color-interpolation-filters="sRGB">
<feFlood flood-opacity="0" result="BackgroundImageFix"/>
<feBlend mode="normal" in="SourceGraphic" in2="BackgroundImageFix" result="shape"/>
<feGaussianBlur stdDeviation="2" result="effect1_foregroundBlur_0_1"/>
</filter>
<filter id="filter9_f_0_1" x="-20.7832" y="176.133" width="1207.23" height="596.365" filterUnits="userSpaceOnUse" color-interpolation-filters="sRGB">
<feFlood flood-opacity="0" result="BackgroundImageFix"/>
<feBlend mode="normal" in="SourceGraphic" in2="BackgroundImageFix" result="shape"/>
<feGaussianBlur stdDeviation="5" result="effect1_foregroundBlur_0_1"/>
</filter>
<filter id="filter10_f_0_1" x="976" y="0" width="383" height="370" filterUnits="userSpaceOnUse" color-interpolation-filters="sRGB">
<feFlood flood-opacity="0" result="BackgroundImageFix"/>
<feBlend mode="normal" in="SourceGraphic" in2="BackgroundImageFix" result="shape"/>
<feGaussianBlur stdDeviation="50" result="effect1_foregroundBlur_0_1"/>
</filter>
<linearGradient id="paint0_linear_0_1" x1="645" y1="747" x2="645" y2="884" gradientUnits="userSpaceOnUse">
<stop stop-color="#59A285"/>
<stop offset="0.706199" stop-color="#408750" stop-opacity="0"/>
</linearGradient>
<linearGradient id="paint1_linear_0_1" x1="1326" y1="691" x2="1448" y2="871" gradientUnits="userSpaceOnUse">
<stop stop-color="#408750" stop-opacity="0"/>
<stop offset="0.605" stop-color="#70ED8D"/>
</linearGradient>
<linearGradient id="paint2_linear_0_1" x1="1236.5" y1="691" x2="1358.5" y2="871" gradientUnits="userSpaceOnUse">
<stop stop-color="#408750" stop-opacity="0"/>
<stop offset="0.605" stop-color="#70ED8D"/>
</linearGradient>
<linearGradient id="paint3_linear_0_1" x1="1147.5" y1="691" x2="1269.5" y2="871" gradientUnits="userSpaceOnUse">
<stop stop-color="#408750" stop-opacity="0"/>
<stop offset="0.605" stop-color="#70ED8D"/>
</linearGradient>
<linearGradient id="paint4_linear_0_1" x1="1061.5" y1="691" x2="1183.5" y2="871" gradientUnits="userSpaceOnUse">
<stop stop-color="#408750" stop-opacity="0"/>
<stop offset="0.605" stop-color="#70ED8D"/>
</linearGradient>
<linearGradient id="paint5_linear_0_1" x1="956.5" y1="691" x2="1078.5" y2="871" gradientUnits="userSpaceOnUse">
<stop stop-color="#408750" stop-opacity="0"/>
<stop offset="0.605" stop-color="#70ED8D"/>
</linearGradient>
<linearGradient id="paint6_linear_0_1" x1="849" y1="691" x2="971" y2="871" gradientUnits="userSpaceOnUse">
<stop stop-color="#408750" stop-opacity="0"/>
<stop offset="0.605" stop-color="#70ED8D"/>
</linearGradient>
<linearGradient id="paint7_linear_0_1" x1="104.5" y1="691" x2="-17.5" y2="871" gradientUnits="userSpaceOnUse">
<stop stop-color="#408750" stop-opacity="0"/>
<stop offset="0.605" stop-color="#70ED8D"/>
</linearGradient>
<linearGradient id="paint8_linear_0_1" x1="194" y1="691" x2="72" y2="871" gradientUnits="userSpaceOnUse">
<stop stop-color="#408750" stop-opacity="0"/>
<stop offset="0.605" stop-color="#70ED8D"/>
</linearGradient>
<linearGradient id="paint9_linear_0_1" x1="283" y1="691" x2="161" y2="871" gradientUnits="userSpaceOnUse">
<stop stop-color="#408750" stop-opacity="0"/>
<stop offset="0.605" stop-color="#70ED8D"/>
</linearGradient>
<linearGradient id="paint10_linear_0_1" x1="369" y1="691" x2="247" y2="871" gradientUnits="userSpaceOnUse">
<stop stop-color="#408750" stop-opacity="0"/>
<stop offset="0.605" stop-color="#70ED8D"/>
</linearGradient>
<linearGradient id="paint11_linear_0_1" x1="474" y1="691" x2="352" y2="871" gradientUnits="userSpaceOnUse">
<stop stop-color="#408750" stop-opacity="0"/>
<stop offset="0.605" stop-color="#70ED8D"/>
</linearGradient>
<linearGradient id="paint12_linear_0_1" x1="581.5" y1="691" x2="459.5" y2="871" gradientUnits="userSpaceOnUse">
<stop stop-color="#408750" stop-opacity="0"/>
<stop offset="0.605" stop-color="#70ED8D"/>
</linearGradient>
<linearGradient id="paint13_linear_0_1" x1="685" y1="690" x2="563" y2="870" gradientUnits="userSpaceOnUse">
<stop stop-color="#408750" stop-opacity="0"/>
<stop offset="0.605" stop-color="#70ED8D"/>
</linearGradient>
<linearGradient id="paint14_linear_0_1" x1="792" y1="690" x2="670" y2="870" gradientUnits="userSpaceOnUse">
<stop stop-color="#408750" stop-opacity="0"/>
<stop offset="0.605" stop-color="#70ED8D"/>
</linearGradient>
<linearGradient id="paint15_linear_0_1" x1="898" y1="690" x2="776" y2="870" gradientUnits="userSpaceOnUse">
<stop stop-color="#408750" stop-opacity="0"/>
<stop offset="0.605" stop-color="#70ED8D"/>
</linearGradient>
</defs>
</svg>
